<svg width="74" height="74" viewBox="0 0 74 74" fill="none" xmlns="http://www.w3.org/2000/svg">
<circle cx="37" cy="37" r="36.25" stroke="#A7A7A7" stroke-width="1.5"/>
<path d="M60.6841 39.7926C60.6841 46.067 58.1205 52.0889 53.5503 56.5322C48.9792 60.9763 42.7752 63.4765 36.302 63.4765C29.8288 63.4765 23.6248 60.9763 19.0538 56.5322C14.4835 52.0889 11.9199 46.067 11.9199 39.7926" stroke="#A7A7A7" stroke-width="1.5"/>
<path d="M28.5708 24.434C28.5708 26.2718 27.8408 28.0343 26.5413 29.3337C25.2418 30.6332 23.4793 31.3633 21.6416 31.3633C19.8038 31.3633 18.0413 30.6332 16.7418 29.3337C15.4424 28.0343 14.7123 26.2718 14.7123 24.434" stroke="#A7A7A7" stroke-width="1.5"/>
<path d="M57.8916 24.434C57.8916 26.2718 57.1616 28.0343 55.8621 29.3337C54.5626 30.6332 52.8001 31.3633 50.9624 31.3633C49.1246 31.3633 47.3621 30.6332 46.0626 29.3337C44.7632 28.0343 44.0331 26.2718 44.0331 24.434" stroke="#A7A7A7" stroke-width="1.5"/>
</svg>
